<svg width="129" height="46" viewBox="0 0 129 46" fill="currentColor" xmlns="http://www.w3.org/2000/svg"
>
<path d="M14.2297 45.9809C10.386 45.8281 7.2413 44.7758 4.78241 42.8213C4.31314 42.4479 3.19492 41.3284 2.81977 40.8562C1.82265 39.6017 1.14474 38.3808 0.692584 37.0262C-0.698771 32.8564 0.0173095 27.3847 2.74079 21.3795C5.07265 16.2384 8.67083 11.1394 14.9484 4.07732C15.8731 3.03815 18.6268 -0.000953674 18.6446 -0.000953674C18.6512 -0.000953674 18.5011 0.259164 18.3122 0.57592C16.68 3.31145 15.2834 6.53363 14.5225 9.32317C13.3003 13.7992 13.4478 17.6404 14.9543 20.6189C15.9935 22.6709 17.7752 24.4483 19.7786 25.4308C23.286 27.1502 28.421 27.2925 34.6919 25.847C35.1237 25.7469 56.5179 20.0644 82.2349 13.219C107.952 6.37295 128.997 0.776111 129 0.780719C129.007 0.786656 69.252 26.3705 38.2322 39.6432C33.3197 41.7446 32.006 42.2754 29.6965 43.0867C23.7928 45.161 18.5044 46.1508 14.2297 45.9809Z" fill="#fff"/>
</svg>
